# MagicaVoxel @ ephtracy

# material
mtllib mushroom.mtl

# normals
vn -1 0 0
vn 1 0 0
vn 0 0 1
vn 0 0 -1
vn 0 -1 0
vn 0 1 0

# texcoords
vt 0.00195312 0.5
vt 0.306641 0.5
vt 0.369141 0.5

# verts
v -3 6 3
v -3 7 3
v -3 7 2
v -3 6 2
v -2 0 2
v -2 1 2
v -2 1 1
v -2 0 1
v -4 5 -0
v -4 6 -0
v -4 6 -1
v -4 5 -1
v -2 1 -0
v -2 0 -0
v -2 1 -1
v -2 0 -1
v -2 1 -2
v -2 0 -2
v -1 7 3
v -1 8 3
v -1 8 2
v -1 7 2
v -1 6 4
v -1 7 4
v -1 6 3
v -3 7 1
v -3 6 1
v -2 2 2
v -2 2 1
v -2 2 -0
v -2 2 -1
v -4 5 1
v -4 6 1
v -2 2 -2
v -4 6 -2
v -4 5 -2
v -3 8 1
v -3 8 -0
v -3 7 -0
v -1 7 -2
v -1 8 -2
v -1 8 -3
v -1 7 -3
v -3 8 -1
v -3 7 -1
v -4 7 1
v -4 7 -0
v -3 5 4
v -3 6 4
v -3 5 3
v -3 4 -3
v -3 5 -3
v -3 5 -4
v -3 4 -4
v -3 6 -3
v -3 6 -4
v -4 6 -3
v -4 5 -3
v -3 6 -2
v -3 7 -2
v -3 7 -3
v -2 3 1
v -2 3 -0
v -2 3 -1
v -2 3 -2
v -4 5 2
v -4 6 2
v -4 7 -1
v -3 6 -1
v -4 5 3
v -4 6 3
v -4 4 1
v -4 4 -0
v -4 4 -1
v -2 7 2
v -2 8 2
v -2 8 1
v -2 7 1
v -2 3 2
v -2 4 2
v -2 4 1
v -2 7 -1
v -2 8 -1
v -2 8 -2
v -2 7 -2
v -3 4 4
v -3 4 3
v -2 4 -0
v -1 6 -3
v -1 7 -4
v -1 6 -4
v -2 4 -1
v -4 4 2
v -2 4 -2
v -4 4 -2
v -4 4 -3
v -4 4 3
v 3 7 -0
v 3 7 -1
v 3 8 -1
v 3 8 -0
v 3 6 3
v 3 6 2
v 3 7 2
v 3 7 3
v 4 4 1
v 4 4 -0
v 4 5 -0
v 4 5 1
v 2 0 2
v 2 0 1
v 2 1 1
v 2 1 2
v 4 4 -1
v 4 5 -1
v 2 0 -0
v 2 1 -0
v 4 4 2
v 4 5 2
v 4 6 -0
v 4 6 1
v 4 6 -1
v 4 7 -1
v 4 7 -0
v 3 4 4
v 3 4 3
v 3 5 3
v 3 5 4
v 2 0 -1
v 2 1 -1
v 4 4 -2
v 4 4 -3
v 4 5 -3
v 4 5 -2
v 2 0 -2
v 2 1 -2
v 2 2 -1
v 2 2 -2
v 2 3 -2
v 2 3 -1
v 4 6 -3
v 4 6 -2
v 4 4 3
v 4 5 3
v 2 7 2
v 2 7 1
v 2 8 1
v 2 8 2
v 3 7 1
v 3 8 1
v 1 7 3
v 1 7 2
v 1 8 2
v 1 8 3
v 1 6 4
v 1 6 3
v 1 7 4
v 3 4 -3
v 3 4 -4
v 3 5 -4
v 3 5 -3
v 2 2 1
v 2 2 2
v 2 2 -0
v 4 6 2
v 2 7 -1
v 2 7 -2
v 2 8 -2
v 2 8 -1
v 3 6 -4
v 3 6 -3
v 3 6 1
v 2 3 -0
v 2 3 1
v 3 6 4
v 4 7 1
v 3 6 -2
v 3 7 -3
v 3 7 -2
v 2 3 2
v 2 4 1
v 2 4 2
v 3 6 -1
v 2 4 -0
v 2 4 -1
v 1 6 -3
v 1 6 -4
v 1 7 -4
v 1 7 -3
v 2 4 -2
v 1 7 -2
v 1 8 -3
v 1 8 -2
v 4 6 3
v 2 6 3
v 2 7 3
v -2 6 3
v -2 7 3
v -1 5 4
v 0 5 4
v 0 6 4
v -1 0 2
v -1 1 2
v 0 0 2
v 0 1 2
v 1 0 2
v 1 1 2
v 2 4 4
v 2 5 4
v 1 5 4
v 0 7 3
v 0 8 3
v 0 7 4
v -2 5 4
v -2 6 4
v -1 2 2
v 0 2 2
v 1 2 2
v 1 4 4
v 0 4 4
v 2 6 4
v -1 4 4
v -2 4 4
v -1 3 2
v -1 4 2
v 0 3 2
v 0 4 2
v 1 3 2
v 1 4 2
v 0 5 -4
v 0 6 -4
v 1 5 -4
v 1 4 -4
v 2 5 -4
v 2 4 -4
v -1 5 -4
v -1 4 -4
v 0 4 -4
v -2 5 -4
v -2 6 -4
v -1 1 -2
v -1 0 -2
v 0 1 -2
v 0 0 -2
v 1 1 -2
v 1 0 -2
v 1 2 -2
v 1 3 -2
v -2 4 -4
v -1 2 -2
v 0 2 -2
v 0 8 -3
v 0 7 -3
v 2 6 -4
v -2 7 -3
v -2 6 -3
v -1 3 -2
v 0 3 -2
v 2 7 -3
v 2 6 -3
v 0 7 -4
v -1 4 -2
v 0 4 -2
v 1 4 -2
v 1 4 -3
v 2 4 -3
v 3 4 -0
v 3 4 1
v -1 4 -3
v 0 4 -3
v -1 0 1
v 0 0 1
v 1 0 1
v 3 4 -1
v -1 0 -0
v 0 0 -0
v 1 0 -0
v 3 4 2
v 2 4 3
v -1 0 -1
v 0 0 -1
v 1 0 -1
v 3 4 -2
v -2 4 -3
v 1 4 3
v 0 4 3
v -3 4 -0
v -3 4 -1
v -1 4 3
v -2 4 3
v -3 4 -2
v -3 4 1
v -3 4 2
v 2 8 -0
v -1 8 1
v -1 8 -0
v -2 8 -0
v 0 8 -0
v 0 8 -1
v -1 8 -1
v 1 8 1
v 0 8 2
v 0 8 1
v 1 8 -1
v 0 8 -2
v 1 8 -0

# faces

usemtl palette

f 1/3/1 2/3/1 3/3/1 4/3/1

f 5/1/1 6/1/1 7/1/1 8/1/1

f 9/3/1 10/3/1 11/3/1 12/3/1

f 8/1/1 7/1/1 13/1/1 14/1/1

f 14/1/1 13/1/1 15/1/1 16/1/1

f 16/1/1 15/1/1 17/1/1 18/1/1

f 19/3/1 20/3/1 21/3/1 22/3/1

f 23/3/1 24/3/1 19/3/1 25/3/1

f 4/3/1 3/3/1 26/3/1 27/3/1

f 6/1/1 28/1/1 29/1/1 7/1/1

f 7/1/1 29/1/1 30/1/1 13/1/1

f 13/1/1 30/1/1 31/1/1 15/1/1

f 32/3/1 33/3/1 10/3/1 9/3/1

f 15/1/1 31/1/1 34/1/1 17/1/1

f 12/3/1 11/3/1 35/3/1 36/3/1

f 26/3/1 37/3/1 38/3/1 39/3/1

f 40/3/1 41/3/1 42/3/1 43/3/1

f 39/3/1 38/3/1 44/3/1 45/3/1

f 33/3/1 46/3/1 47/3/1 10/3/1

f 48/3/1 49/3/1 1/3/1 50/3/1

f 51/3/1 52/3/1 53/3/1 54/3/1

f 52/3/1 55/3/1 56/3/1 53/3/1

f 36/3/1 35/3/1 57/3/1 58/3/1

f 59/3/1 60/3/1 61/3/1 55/3/1

f 29/1/1 62/1/1 63/1/1 30/1/1

f 30/1/1 63/1/1 64/1/1 31/1/1

f 31/1/1 64/1/1 65/1/1 34/1/1

f 66/3/1 67/3/1 33/3/1 32/3/1

f 10/3/1 47/3/1 68/3/1 11/3/1

f 69/3/1 45/3/1 60/3/1 59/3/1

f 70/3/1 71/3/1 67/3/1 66/3/1

f 72/3/1 32/3/1 9/3/1 73/3/1

f 73/3/1 9/3/1 12/3/1 74/3/1

f 75/3/1 76/3/1 77/3/1 78/3/1

f 79/1/1 80/1/1 81/1/1 62/1/1

f 82/3/1 83/3/1 84/3/1 85/3/1

f 86/3/1 48/3/1 50/3/1 87/3/1

f 62/1/1 81/1/1 88/1/1 63/1/1

f 89/3/1 43/3/1 90/3/1 91/3/1

f 63/1/1 88/1/1 92/1/1 64/1/1

f 93/3/1 66/3/1 32/3/1 72/3/1

f 64/1/1 92/1/1 94/1/1 65/1/1

f 74/3/1 12/3/1 36/3/1 95/3/1

f 95/3/1 36/3/1 58/3/1 96/3/1

f 97/3/1 70/3/1 66/3/1 93/3/1

f 28/1/1 79/1/1 62/1/1 29/1/1

f 98/3/2 99/3/2 100/3/2 101/3/2

f 102/3/2 103/3/2 104/3/2 105/3/2

f 106/3/2 107/3/2 108/3/2 109/3/2

f 110/1/2 111/1/2 112/1/2 113/1/2

f 107/3/2 114/3/2 115/3/2 108/3/2

f 111/1/2 116/1/2 117/1/2 112/1/2

f 118/3/2 106/3/2 109/3/2 119/3/2

f 109/3/2 108/3/2 120/3/2 121/3/2

f 120/3/2 122/3/2 123/3/2 124/3/2

f 125/3/2 126/3/2 127/3/2 128/3/2

f 116/1/2 129/1/2 130/1/2 117/1/2

f 131/3/2 132/3/2 133/3/2 134/3/2

f 129/1/2 135/1/2 136/1/2 130/1/2

f 137/1/2 138/1/2 139/1/2 140/1/2

f 134/3/2 133/3/2 141/3/2 142/3/2

f 143/3/2 118/3/2 119/3/2 144/3/2

f 114/3/2 131/3/2 134/3/2 115/3/2

f 115/3/2 134/3/2 142/3/2 122/3/2

f 145/3/2 146/3/2 147/3/2 148/3/2

f 149/3/2 98/3/2 101/3/2 150/3/2

f 151/3/2 152/3/2 153/3/2 154/3/2

f 155/3/2 156/3/2 151/3/2 157/3/2

f 158/3/2 159/3/2 160/3/2 161/3/2

f 113/1/2 112/1/2 162/1/2 163/1/2

f 112/1/2 117/1/2 164/1/2 162/1/2

f 117/1/2 130/1/2 137/1/2 164/1/2

f 130/1/2 136/1/2 138/1/2 137/1/2

f 119/3/2 109/3/2 121/3/2 165/3/2

f 108/3/2 115/3/2 122/3/2 120/3/2

f 166/3/2 167/3/2 168/3/2 169/3/2

f 161/3/2 160/3/2 170/3/2 171/3/2

f 103/3/2 172/3/2 149/3/2 104/3/2

f 162/1/2 164/1/2 173/1/2 174/1/2

f 164/1/2 137/1/2 140/1/2 173/1/2

f 128/3/2 127/3/2 102/3/2 175/3/2

f 121/3/2 120/3/2 124/3/2 176/3/2

f 177/3/2 171/3/2 178/3/2 179/3/2

f 180/1/2 174/1/2 181/1/2 182/1/2

f 183/3/2 177/3/2 179/3/2 99/3/2

f 174/1/2 173/1/2 184/1/2 181/1/2

f 173/1/2 140/1/2 185/1/2 184/1/2

f 186/3/2 187/3/2 188/3/2 189/3/2

f 140/1/2 139/1/2 190/1/2 185/1/2

f 191/3/2 189/3/2 192/3/2 193/3/2

f 144/3/2 119/3/2 165/3/2 194/3/2

f 163/1/2 162/1/2 174/1/2 180/1/2

f 195/3/3 102/3/3 105/3/3 196/3/3

f 156/3/3 195/3/3 196/3/3 151/3/3

f 197/3/3 25/3/3 19/3/3 198/3/3

f 1/3/3 197/3/3 198/3/3 2/3/3

f 199/3/3 200/3/3 201/3/3 23/3/3

f 5/1/3 202/1/3 203/1/3 6/1/3

f 202/1/3 204/1/3 205/1/3 203/1/3

f 204/1/3 206/1/3 207/1/3 205/1/3

f 206/1/3 110/1/3 113/1/3 207/1/3

f 208/3/3 125/3/3 128/3/3 209/3/3

f 126/3/3 143/3/3 144/3/3 127/3/3

f 200/3/3 210/3/3 155/3/3 201/3/3

f 152/3/3 145/3/3 148/3/3 153/3/3

f 146/3/3 149/3/3 150/3/3 147/3/3

f 19/3/3 211/3/3 212/3/3 20/3/3

f 211/3/3 151/3/3 154/3/3 212/3/3

f 201/3/3 155/3/3 157/3/3 213/3/3

f 23/3/3 201/3/3 213/3/3 24/3/3

f 214/3/3 199/3/3 23/3/3 215/3/3

f 6/1/3 203/1/3 216/1/3 28/1/3

f 203/1/3 205/1/3 217/1/3 216/1/3

f 205/1/3 207/1/3 218/1/3 217/1/3

f 207/1/3 113/1/3 163/1/3 218/1/3

f 219/3/3 208/3/3 209/3/3 210/3/3

f 220/3/3 219/3/3 210/3/3 200/3/3

f 210/3/3 209/3/3 221/3/3 155/3/3

f 26/3/3 78/3/3 77/3/3 37/3/3

f 33/3/3 27/3/3 26/3/3 46/3/3

f 48/3/3 214/3/3 215/3/3 49/3/3

f 222/3/3 220/3/3 200/3/3 199/3/3

f 223/3/3 222/3/3 199/3/3 214/3/3

f 209/3/3 128/3/3 175/3/3 221/3/3

f 172/3/3 121/3/3 176/3/3 149/3/3

f 70/3/3 50/3/3 1/3/3 71/3/3

f 75/3/3 22/3/3 21/3/3 76/3/3

f 79/1/3 224/1/3 225/1/3 80/1/3

f 224/1/3 226/1/3 227/1/3 225/1/3

f 226/1/3 228/1/3 229/1/3 227/1/3

f 228/1/3 180/1/3 182/1/3 229/1/3

f 86/3/3 223/3/3 214/3/3 48/3/3

f 127/3/3 144/3/3 194/3/3 102/3/3

f 97/3/3 87/3/3 50/3/3 70/3/3

f 28/1/3 216/1/3 224/1/3 79/1/3

f 216/1/3 217/1/3 226/1/3 224/1/3

f 217/1/3 218/1/3 228/1/3 226/1/3

f 218/1/3 163/1/3 180/1/3 228/1/3

f 166/3/4 169/3/4 100/3/4 99/3/4

f 230/3/4 231/3/4 187/3/4 232/3/4

f 233/3/4 232/3/4 234/3/4 235/3/4

f 236/3/4 91/3/4 231/3/4 230/3/4

f 237/3/4 236/3/4 230/3/4 238/3/4

f 239/3/4 240/3/4 91/3/4 236/3/4

f 183/3/4 99/3/4 123/3/4 122/3/4

f 158/3/4 161/3/4 133/3/4 132/3/4

f 18/1/4 17/1/4 241/1/4 242/1/4

f 242/1/4 241/1/4 243/1/4 244/1/4

f 244/1/4 243/1/4 245/1/4 246/1/4

f 246/1/4 245/1/4 136/1/4 135/1/4

f 247/1/4 248/1/4 139/1/4 138/1/4

f 161/3/4 171/3/4 141/3/4 133/3/4

f 235/3/4 234/3/4 160/3/4 159/3/4

f 249/3/4 239/3/4 236/3/4 237/3/4

f 17/1/4 34/1/4 250/1/4 241/1/4

f 241/1/4 250/1/4 251/1/4 243/1/4

f 243/1/4 251/1/4 247/1/4 245/1/4

f 245/1/4 247/1/4 138/1/4 136/1/4

f 191/3/4 193/3/4 168/3/4 167/3/4

f 43/3/4 42/3/4 252/3/4 253/3/4

f 45/3/4 44/3/4 83/3/4 82/3/4

f 234/3/4 254/3/4 170/3/4 160/3/4

f 232/3/4 187/3/4 254/3/4 234/3/4

f 238/3/4 230/3/4 232/3/4 233/3/4

f 54/3/4 53/3/4 239/3/4 249/3/4

f 53/3/4 56/3/4 240/3/4 239/3/4

f 58/3/4 57/3/4 55/3/4 52/3/4

f 55/3/4 61/3/4 255/3/4 256/3/4

f 34/1/4 65/1/4 257/1/4 250/1/4

f 250/1/4 257/1/4 258/1/4 251/1/4

f 251/1/4 258/1/4 248/1/4 247/1/4

f 11/3/4 68/3/4 45/3/4 69/3/4

f 256/3/4 255/3/4 43/3/4 89/3/4

f 186/3/4 189/3/4 259/3/4 260/3/4

f 260/3/4 259/3/4 178/3/4 171/3/4

f 85/3/4 84/3/4 41/3/4 40/3/4

f 91/3/4 90/3/4 261/3/4 231/3/4

f 231/3/4 261/3/4 188/3/4 187/3/4

f 65/1/4 94/1/4 262/1/4 257/1/4

f 257/1/4 262/1/4 263/1/4 258/1/4

f 258/1/4 263/1/4 264/1/4 248/1/4

f 248/1/4 264/1/4 190/1/4 139/1/4

f 253/3/4 252/3/4 192/3/4 189/3/4

f 96/3/4 58/3/4 52/3/4 51/3/4

f 265/3/5 233/3/5 235/3/5 266/3/5

f 181/3/5 184/3/5 267/3/5 268/3/5

f 268/3/5 267/3/5 107/3/5 106/3/5

f 269/3/5 237/3/5 238/3/5 270/3/5

f 5/1/5 8/1/5 271/1/5 202/1/5

f 202/1/5 271/1/5 272/1/5 204/1/5

f 204/1/5 272/1/5 273/1/5 206/1/5

f 206/1/5 273/1/5 111/1/5 110/1/5

f 267/3/5 274/3/5 114/3/5 107/3/5

f 8/1/5 14/1/5 275/1/5 271/1/5

f 271/1/5 275/1/5 276/1/5 272/1/5

f 272/1/5 276/1/5 277/1/5 273/1/5

f 273/1/5 277/1/5 116/1/5 111/1/5

f 278/3/5 268/3/5 106/3/5 118/3/5

f 208/3/5 279/3/5 126/3/5 125/3/5

f 14/1/5 16/1/5 280/1/5 275/1/5

f 275/1/5 280/1/5 281/1/5 276/1/5

f 276/1/5 281/1/5 282/1/5 277/1/5

f 277/1/5 282/1/5 129/1/5 116/1/5

f 182/3/5 181/3/5 268/3/5 278/3/5

f 283/3/5 158/3/5 132/3/5 131/3/5

f 16/1/5 18/1/5 242/1/5 280/1/5

f 280/1/5 242/1/5 244/1/5 281/1/5

f 281/1/5 244/1/5 246/1/5 282/1/5

f 282/1/5 246/1/5 135/1/5 129/1/5

f 262/3/5 269/3/5 270/3/5 263/3/5

f 126/3/5 278/3/5 118/3/5 143/3/5

f 279/3/5 182/3/5 278/3/5 126/3/5

f 274/3/5 283/3/5 131/3/5 114/3/5

f 266/3/5 235/3/5 159/3/5 158/3/5

f 284/3/5 249/3/5 237/3/5 269/3/5

f 184/3/5 185/3/5 274/3/5 267/3/5

f 219/3/5 285/3/5 279/3/5 208/3/5

f 220/3/5 286/3/5 285/3/5 219/3/5

f 190/3/5 266/3/5 158/3/5 283/3/5

f 94/3/5 284/3/5 269/3/5 262/3/5

f 285/3/5 229/3/5 182/3/5 279/3/5

f 286/3/5 227/3/5 229/3/5 285/3/5

f 185/3/5 190/3/5 283/3/5 274/3/5

f 270/3/5 238/3/5 233/3/5 265/3/5

f 287/3/5 288/3/5 92/3/5 88/3/5

f 51/3/5 54/3/5 249/3/5 284/3/5

f 222/3/5 289/3/5 286/3/5 220/3/5

f 223/3/5 290/3/5 289/3/5 222/3/5

f 264/3/5 265/3/5 266/3/5 190/3/5

f 288/3/5 291/3/5 94/3/5 92/3/5

f 291/3/5 51/3/5 284/3/5 94/3/5

f 289/3/5 225/3/5 227/3/5 286/3/5

f 290/3/5 80/3/5 225/3/5 289/3/5

f 292/3/5 287/3/5 88/3/5 81/3/5

f 72/3/5 73/3/5 287/3/5 292/3/5

f 73/3/5 74/3/5 288/3/5 287/3/5

f 86/3/5 87/3/5 290/3/5 223/3/5

f 293/3/5 292/3/5 81/3/5 80/3/5

f 93/3/5 72/3/5 292/3/5 293/3/5

f 263/3/5 270/3/5 265/3/5 264/3/5

f 74/3/5 95/3/5 291/3/5 288/3/5

f 95/3/5 96/3/5 51/3/5 291/3/5

f 87/3/5 293/3/5 80/3/5 290/3/5

f 97/3/5 93/3/5 293/3/5 87/3/5

f 294/3/6 101/3/6 100/3/6 169/3/6

f 77/3/6 295/3/6 296/3/6 297/3/6

f 196/3/6 105/3/6 104/3/6 145/3/6

f 151/3/6 196/3/6 145/3/6 152/3/6

f 198/3/6 19/3/6 22/3/6 75/3/6

f 2/3/6 198/3/6 75/3/6 3/3/6

f 256/3/6 89/3/6 91/3/6 240/3/6

f 98/3/6 124/3/6 123/3/6 99/3/6

f 296/3/6 298/3/6 299/3/6 300/3/6

f 177/3/6 142/3/6 141/3/6 171/3/6

f 183/3/6 122/3/6 142/3/6 177/3/6

f 153/3/6 148/3/6 147/3/6 301/3/6

f 147/3/6 150/3/6 101/3/6 294/3/6

f 20/3/6 212/3/6 302/3/6 21/3/6

f 212/3/6 154/3/6 153/3/6 302/3/6

f 213/3/6 157/3/6 151/3/6 211/3/6

f 24/3/6 213/3/6 211/3/6 19/3/6

f 3/3/6 75/3/6 78/3/6 26/3/6

f 215/3/6 23/3/6 25/3/6 197/3/6

f 103/3/6 165/3/6 121/3/6 172/3/6

f 155/3/6 221/3/6 195/3/6 156/3/6

f 295/3/6 303/3/6 298/3/6 296/3/6

f 11/3/6 69/3/6 59/3/6 35/3/6

f 37/3/6 77/3/6 297/3/6 38/3/6

f 304/3/6 169/3/6 168/3/6 193/3/6

f 41/3/6 305/3/6 252/3/6 42/3/6

f 38/3/6 297/3/6 83/3/6 44/3/6

f 260/3/6 171/3/6 170/3/6 254/3/6

f 186/3/6 260/3/6 254/3/6 187/3/6

f 46/3/6 26/3/6 39/3/6 47/3/6

f 49/3/6 215/3/6 197/3/6 1/3/6

f 306/3/6 294/3/6 169/3/6 304/3/6

f 55/3/6 256/3/6 240/3/6 56/3/6

f 35/3/6 59/3/6 55/3/6 57/3/6

f 60/3/6 85/3/6 255/3/6 61/3/6

f 145/3/6 104/3/6 149/3/6 146/3/6

f 221/3/6 175/3/6 102/3/6 195/3/6

f 67/3/6 4/3/6 27/3/6 33/3/6

f 149/3/6 176/3/6 124/3/6 98/3/6

f 47/3/6 39/3/6 45/3/6 68/3/6

f 45/3/6 82/3/6 85/3/6 60/3/6

f 85/3/6 40/3/6 43/3/6 255/3/6

f 191/3/6 167/3/6 259/3/6 189/3/6

f 167/3/6 179/3/6 178/3/6 259/3/6

f 299/3/6 304/3/6 193/3/6 305/3/6

f 302/3/6 153/3/6 301/3/6 303/3/6

f 21/3/6 302/3/6 303/3/6 295/3/6

f 71/3/6 1/3/6 4/3/6 67/3/6

f 298/3/6 306/3/6 304/3/6 299/3/6

f 76/3/6 21/3/6 295/3/6 77/3/6

f 297/3/6 296/3/6 300/3/6 83/3/6

f 303/3/6 301/3/6 306/3/6 298/3/6

f 83/3/6 300/3/6 41/3/6 84/3/6

f 166/3/6 99/3/6 179/3/6 167/3/6

f 43/3/6 253/3/6 261/3/6 90/3/6

f 253/3/6 189/3/6 188/3/6 261/3/6

f 305/3/6 193/3/6 192/3/6 252/3/6

f 102/3/6 194/3/6 165/3/6 103/3/6

f 300/3/6 299/3/6 305/3/6 41/3/6

f 301/3/6 147/3/6 294/3/6 306/3/6

# numNormals 6
# numTexCoords 3
# numVerts 306
# numFaces 304
